<svg width="22" height="25" viewBox="0 0 22 25" fill="none" xmlns="http://www.w3.org/2000/svg">
<g clip-path="url(#clip0_12063_81147)">
<path fill-rule="evenodd" clip-rule="evenodd" d="M17.7775 13.2869C17.7775 10.1205 20.3937 8.60539 20.4626 8.53652C19.0179 6.40314 16.6764 6.06629 15.9188 6.06629C13.9913 5.85969 12.1327 7.23628 11.1685 7.23628C10.1355 7.23628 8.69829 6.13591 7.03799 6.13591C4.97198 6.13591 2.97633 7.37477 1.94333 9.23343C-0.328538 13.0885 1.32352 18.7401 3.45765 21.8316C4.49066 23.3459 5.72952 25.0669 7.38158 24.998C8.96477 24.9291 9.58458 23.965 11.5121 23.965C13.4396 23.965 13.9823 24.998 15.6426 24.9291C17.3643 24.9291 18.3973 23.4148 19.4288 21.8997C20.6677 20.1781 21.1505 18.4579 21.1505 18.3201C21.0816 18.3201 17.8464 17.0813 17.7775 13.2943V13.2869ZM14.68 3.99279C15.5064 2.89242 16.1247 1.44471 15.987 0C14.7481 0.0688671 13.2323 0.826405 12.3385 1.92753C11.581 2.8228 10.8242 4.33788 11.0308 5.78259C12.3385 5.85146 13.7855 5.02505 14.6792 3.98606L14.68 3.99279Z" fill="#001D2F"/>
</g>
<defs>
<clipPath id="clip0_12063_81147">
<rect width="22" height="25" fill="white"/>
</clipPath>
</defs>
</svg>
