<svg width="57" height="13" viewBox="0 0 57 13" fill="none" xmlns="http://www.w3.org/2000/svg">
<g clip-path="url(#clip0_12117_1928)">
<path d="M12.2199 7.81005C12.2199 9.52942 10.8883 12.0406 8.34195 12.0406H5.58266C4.68859 12.0406 3.96387 11.3116 3.96387 10.4125V2.59405C3.96387 1.69485 4.68864 0.965976 5.58266 0.965976H8.34195C11.1546 0.965976 12.2199 3.47714 12.2199 5.19651V5.35732H12.9307V0H3.96404C2.22349 0 0 1.08768 0 3.49827V9.46638C0 11.9722 2.22349 12.9646 3.96404 12.9646H12.9307V7.38348H12.2199V7.81005Z" fill="#001D2F"/>
<path d="M18.6451 0H14.707V12.9647H20.2116V12.3481C20.2116 12.3481 15.726 12.3481 15.726 7.91734C15.726 6.71759 15.726 2.59971 15.726 2.59971L24.209 12.9647H27.6211V0H22.2387V0.611899C22.2387 0.611899 26.6115 0.58645 26.6115 4.98462C26.6115 6.71128 26.6115 9.75741 26.6115 9.75741L18.6451 0Z" fill="#001D2F"/>
<path d="M29.4473 12.9647H42.338V7.4286H41.7249C41.7249 7.4286 41.783 11.9983 37.3775 11.9983C36.1846 11.9983 33.2509 11.9983 33.2509 11.9983V6.71128C33.2509 6.71128 33.6568 6.71128 34.9363 6.71128C37.9974 6.71128 37.9974 9.83796 37.9974 9.83796H38.6615V2.75293H37.9974C37.9974 2.75293 37.9974 5.83164 34.9363 5.83164C34.4827 5.83164 33.2509 5.83164 33.2509 5.83164V0.92249C33.2509 0.92249 36.1846 0.92249 37.3775 0.92249C41.783 0.92249 41.7249 5.36105 41.7249 5.36105H42.338V0H29.4473V12.9647Z" fill="#001D2F"/>
<path d="M43.7441 0H56.6349V5.36099H56.0218C56.0218 5.36099 55.7811 0.80569 52.0806 0.80569C52.0806 0.80569 52.0806 8.19355 52.0806 9.88764C52.0806 11.5817 52.8652 12.2896 54.7158 12.2896V12.9646H45.7308V12.2896C47.7255 12.2896 48.3387 11.3917 48.3387 9.88764C48.3387 9.35261 48.3387 0.80569 48.3387 0.80569C44.5617 0.80569 44.4106 5.35376 44.4106 5.35376H43.7441V0Z" fill="#001D2F"/>
</g>
<defs>
<clipPath id="clip0_12117_1928">
<rect width="56.6353" height="12.9647" fill="white"/>
</clipPath>
</defs>
</svg>
