<svg width="48" height="48" viewBox="0 0 48 48" fill="none" xmlns="http://www.w3.org/2000/svg">
<path d="M39.8153 0H7.70178C3.4482 0 0 3.4482 0 7.70178V39.8153C0 44.0688 3.4482 47.5171 7.70178 47.5171H39.8153C44.0688 47.5171 47.5171 44.0688 47.5171 39.8153V7.70178C47.5171 3.4482 44.0688 0 39.8153 0Z" fill="url(#paint0_linear_4919_23638)"/>
<path d="M33.6329 20.5239C36.8427 21.562 39.1648 24.573 39.1652 28.1284C39.1652 29.8783 38.6014 31.4966 37.6476 32.813L39.1818 35.5972C39.3117 35.833 39.1413 36.122 38.8722 36.1226H31.2296L31.2306 36.1206C31.2112 36.1207 31.1915 36.1225 31.172 36.1226C28.2618 36.1226 25.7147 34.5674 24.3165 32.2427C24.8548 32.1372 25.3595 31.92 25.7941 31.6167C27.2349 30.8704 28.2207 29.367 28.2208 27.6323C28.2208 26.5044 27.8036 25.4742 27.1163 24.686C29.9236 24.4075 32.3899 22.7897 33.6329 20.5239Z" fill="white"/>
<path fill-rule="evenodd" clip-rule="evenodd" d="M13.5153 30.7473C10.5431 30.7473 8.64667 29.0775 8.64667 26.7565C8.64667 25.9932 8.87329 25.0593 9.75115 23.1629H6.63818L9.49713 17.049H29.3939C29.8472 17.049 30.1585 16.7103 30.1585 16.3131C30.1585 15.9159 29.8472 15.5772 29.3939 15.5772H13.29L14.7045 12.5489C15.5811 10.6799 17.4775 9.46338 19.5445 9.46338H26.3096C30.2158 9.46338 33.1021 12.1517 33.1021 15.6619C33.1021 19.8221 29.2806 23.1616 24.8664 23.1616H11.7895C11.3923 23.9835 11.8455 24.6335 12.8081 24.6335H23.224C24.9499 24.6335 26.281 25.85 26.281 27.4077C26.281 29.1908 24.5552 30.7473 22.6015 30.7473H13.5153Z" fill="white"/>
<defs>
<linearGradient id="paint0_linear_4919_23638" x1="2.37585" y1="45.1412" x2="53.6943" y2="-6.65239" gradientUnits="userSpaceOnUse">
<stop stop-color="#B6D1D0"/>
<stop offset="1" stop-color="#14BD9B"/>
</linearGradient>
</defs>
</svg>
