<svg xmlns="http://www.w3.org/2000/svg" width="23" height="25" viewBox="0 0 23 25" fill="none">
  <mask id="mask0_11991_4825" style="mask-type:alpha" maskUnits="userSpaceOnUse" x="0" y="0" width="23" height="25">
    <path d="M20.9674 9.97802C22.9088 11.0989 22.9088 13.9011 20.9673 15.022L4.3682 24.6055C2.42677 25.7264 -9.79904e-08 24.3253 0 22.0835L8.37818e-07 2.91647C9.35809e-07 0.674714 2.42678 -0.726383 4.3682 0.394497L20.9674 9.97802Z" fill="#D9D9D9"/>
  </mask>
  <g mask="url(#mask0_11991_4825)">
    <path d="M20.9674 9.97802C22.9088 11.0989 22.9088 13.9011 20.9673 15.022L4.3682 24.6055C2.42677 25.7264 -9.79904e-08 24.3253 0 22.0835L8.37818e-07 2.91647C9.35809e-07 0.674714 2.42678 -0.726383 4.3682 0.394497L20.9674 9.97802Z" fill="#D9D9D9"/>
    <path d="M24.4047 11.6846L16.2507 6.90869L10.543 12.6165L16.0178 18.0913L22.4245 15.4121L24.4047 11.6846Z" fill="#FBBC04"/>
    <path d="M-0.0585938 23.2166L2.97002 27.0606L16.0164 18.0913L10.5416 12.6165L-0.0585938 23.2166Z" fill="#EA4335"/>
    <path d="M10.5416 12.6165L-0.0585938 23.2167V2.01636L10.5416 12.6165Z" fill="#4285F4"/>
    <path d="M10.5416 12.6164L16.2493 6.90861L2.27111 -1.24536L-0.0585938 2.01623L10.5416 12.6164Z" fill="#34A853"/>
  </g>
</svg>
