<svg width="24" height="24" viewBox="0 0 24 24" fill="none" xmlns="http://www.w3.org/2000/svg">
<path d="M12.0002 2.7002C16.0604 2.70023 19.3713 5.70907 19.3713 9.42871V9.92969C19.7772 10.0707 20.15 10.3035 20.4592 10.6133C20.998 11.1517 21.3 11.8814 21.3 12.6426V14.5713C21.3 15.3329 20.9972 16.0621 20.4583 16.6006C20.0871 16.9724 19.6242 17.2298 19.1223 17.3545C18.7453 18.3128 18.2339 19.0524 17.4807 19.5068L17.469 19.5137C17.046 19.766 16.5543 19.9247 15.9788 19.9824C15.6289 20.7577 14.8489 21.2997 13.9387 21.2998C12.7804 21.2998 11.8268 20.4223 11.7122 19.2988L11.7004 19.0713C11.7005 17.8413 12.7033 16.8428 13.9387 16.8428C14.8189 16.8429 15.577 17.3509 15.9426 18.0859C16.1655 18.049 16.3515 17.9859 16.5081 17.8916C16.7359 17.7541 16.9188 17.5496 17.0823 17.2754C16.9298 17.1999 16.7882 17.1013 16.6653 16.9785C16.3681 16.6813 16.2005 16.2777 16.2004 15.8574V11.3574C16.2004 10.9369 16.3681 10.5336 16.6653 10.2363C16.891 10.0107 17.1779 9.86216 17.4866 9.80273V9.42871C17.4866 6.85258 15.1956 4.72319 12.2834 4.59277L12.0002 4.58594C8.96754 4.58594 6.53393 6.75165 6.51392 9.39648V9.80273C6.78259 9.85438 7.03484 9.97271 7.24438 10.1514L7.33521 10.2363L7.33716 10.2373L7.4397 10.3496L7.44165 10.3525C7.67265 10.6346 7.80005 10.9897 7.80005 11.3574V15.8574C7.80001 16.2777 7.63244 16.6813 7.33521 16.9785C7.03788 17.2755 6.63431 17.4424 6.21411 17.4424H5.57153C4.81009 17.4423 4.07971 17.1407 3.54126 16.6016L3.52661 16.5869V16.584C2.99776 16.0471 2.70044 15.3252 2.70044 14.5713V12.6426C2.70053 11.8814 3.00253 11.1516 3.54126 10.6133L3.54224 10.6123L3.68091 10.4824L3.68188 10.4805C3.96085 10.2363 4.2833 10.0509 4.62915 9.93066V9.38477C4.6555 5.68583 7.95699 2.7002 12.0002 2.7002ZM5.57153 11.6572C5.31052 11.6573 5.05906 11.7614 4.87427 11.9463C4.68974 12.131 4.58629 12.3818 4.58618 12.6426V14.5713C4.58618 14.8324 4.68962 15.0838 4.87427 15.2686C5.05913 15.4534 5.31058 15.5576 5.57153 15.5576H5.91431V11.6572H5.57153ZM18.0862 15.5576H18.4358L18.5315 15.5518C18.7551 15.5281 18.9657 15.4291 19.1262 15.2686C19.311 15.0837 19.4153 14.8323 19.4153 14.5713V12.6426C19.4152 12.3819 19.3109 12.1311 19.1262 11.9463C18.9414 11.7614 18.69 11.6572 18.429 11.6572H18.0862V15.5576Z" fill="#001D2F"/>
</svg>
